# xmcd
#
# Track frame offsets: 
#        150
#        13308
#        32124
#        44087
#        60008
#        77100
#        92397
#
# Disc length: 1297 seconds
#
# Revision: 0
# Processed by: cddbd v1.5.2PL0 Copyright (c) Steve Scherf et al.
# Submitted via: ExactAudioCopyFreeDBPlugin 1.0
#
DISCID=4d050f07
DTITLE=Oh My Darling - Venez Danser
DYEAR=2012
DGENRE=Country
TTITLE0=Ma Belle
TTITLE1=La Valse D'evelina
TTITLE2=Champ de Bataille
TTITLE3=Venez Danser
TTITLE4=Encre de Plume
TTITLE5=A la Claire Fontaine
TTITLE6=Extra
EXTD=
EXTT0=
EXTT1=
EXTT2=
EXTT3=
EXTT4=
EXTT5=
EXTT6=
PLAYORDER=
